<?xml version="1.0" standalone="no"?>
<!DOCTYPE svg PUBLIC "-//W3C//DTD SVG 20010904//EN"
 "http://www.w3.org/TR/2001/REC-SVG-20010904/DTD/svg10.dtd">
<svg version="1.0" xmlns="http://www.w3.org/2000/svg"
 width="15000.000000pt" height="5250.000000pt" viewBox="0 0 15000.000000 5250.000000"
 preserveAspectRatio="xMidYMid meet">
<metadata>
Created by potrace 1.16, written by Peter Selinger 2001-2019
</metadata>
<g transform="translate(0.000000,5250.000000) scale(0.100000,-0.100000)"
fill="#000000" stroke="none">
<path d="M10060 34993 c0 -5 477 -2876 1061 -6381 l1062 -6372 970 2 970 3
1156 4728 c765 3131 1158 4722 1163 4710 6 -14 2157 -9079 2224 -9375 l16 -68
909 0 c500 0 909 2 909 5 0 3 477 2867 1060 6365 583 3498 1060 6367 1060
6375 0 13 -83 15 -694 15 l-695 0 -6 -42 c-308 -2084 -1654 -11048 -1658
-11038 -3 8 -472 2117 -1042 4685 -570 2569 -1041 4689 -1047 4713 l-10 42
-969 0 c-913 0 -968 -1 -973 -17 -3 -10 -505 -2137 -1116 -4728 -611 -2590
-1114 -4718 -1118 -4728 -4 -11 -353 2276 -841 5520 -458 3046 -836 5550 -838
5566 l-5 27 -774 0 c-426 0 -774 -3 -774 -7z"/>
<path d="M83480 28620 l0 -6380 755 0 755 0 0 2765 0 2765 1950 0 1950 0 0
605 0 605 -1950 0 -1950 0 0 2405 0 2405 2305 0 2305 0 0 605 0 605 -3060 0
-3060 0 0 -6380z"/>
<path d="M96062 32430 c-677 -40 -1377 -231 -1897 -517 -716 -393 -1283 -1001
-1675 -1798 -363 -736 -536 -1448 -591 -2435 -15 -264 -6 -950 15 -1200 73
-844 237 -1479 550 -2125 251 -518 536 -913 915 -1269 465 -437 965 -723 1595
-911 422 -126 795 -183 1261 -192 467 -9 817 28 1245 133 790 194 1418 550
1955 1106 318 329 550 668 776 1133 381 785 549 1569 575 2680 22 961 -110
1858 -378 2569 -262 694 -604 1236 -1064 1686 -445 435 -922 721 -1524 915
-313 100 -696 179 -1020 210 -200 18 -556 26 -738 15z m440 -1160 c430 -24
768 -107 1096 -270 797 -396 1325 -1169 1552 -2274 87 -424 127 -823 137
-1361 23 -1332 -209 -2355 -695 -3065 -138 -202 -357 -440 -537 -583 -392
-313 -871 -497 -1424 -548 -189 -17 -586 -7 -756 19 -434 67 -754 187 -1085
407 -456 302 -820 774 -1049 1358 -173 442 -282 959 -333 1582 -18 216 -18
1144 0 1350 77 902 256 1554 573 2088 162 273 398 548 634 739 410 331 949
527 1533 557 81 5 154 9 162 9 8 1 95 -3 192 -8z"/>
<path d="M106980 32283 c-525 -38 -960 -142 -1397 -333 -572 -251 -1033 -651
-1315 -1140 -228 -396 -323 -802 -298 -1270 40 -731 300 -1255 835 -1681 290
-231 542 -388 920 -574 359 -177 582 -265 1199 -474 1096 -372 1526 -547 1854
-752 151 -94 226 -152 327 -254 146 -146 235 -296 294 -492 52 -178 66 -291
66 -553 -1 -205 -3 -248 -23 -337 -63 -291 -173 -486 -401 -714 -201 -201
-425 -335 -721 -433 -601 -199 -1362 -205 -1955 -16 -428 137 -790 355 -1096
660 -181 181 -367 436 -467 641 -26 54 -50 98 -55 99 -6 0 -1216 -558 -1225
-565 -11 -10 127 -259 222 -400 367 -544 923 -1011 1546 -1295 528 -241 1034
-368 1630 -410 189 -13 602 -13 788 0 1139 81 2089 512 2652 1204 159 196 319
477 405 710 136 370 180 791 134 1291 -77 844 -443 1407 -1219 1875 -312 188
-858 428 -1615 710 -1364 508 -1639 619 -1900 769 -573 330 -805 690 -805
1252 0 311 70 514 252 735 287 347 762 561 1393 628 595 63 1129 -10 1523
-208 381 -192 723 -535 949 -954 25 -48 47 -88 48 -90 3 -4 1237 488 1247 497
4 4 -32 72 -80 151 -162 267 -287 426 -521 661 -203 202 -331 308 -556 458
-534 355 -1093 538 -1830 601 -108 9 -693 11 -805 3z"/>
<path d="M25360 27205 l0 -4965 730 0 730 0 0 4965 0 4965 -730 0 -730 0 0
-4965z"/>
<path d="M30710 27205 l0 -4965 3110 0 3110 0 0 635 0 635 -2380 0 -2380 0 0
4330 0 4330 -730 0 -730 0 0 -4965z"/>
<path d="M39580 27205 l0 -4965 3110 0 3110 0 0 635 0 635 -2380 0 -2380 0 0
4330 0 4330 -730 0 -730 0 0 -4965z"/>
<path d="M48450 27205 l0 -4965 730 0 730 0 0 4965 0 4965 -730 0 -730 0 0
-4965z"/>
<path d="M56089 32143 c-51 -132 -3703 -9872 -3706 -9885 -5 -17 35 -18 735
-18 l740 0 26 73 c15 39 206 576 425 1192 l398 1120 2210 3 2211 2 12 -32 c6
-18 187 -537 402 -1153 215 -616 397 -1139 405 -1162 l15 -43 795 0 c459 0
793 4 791 9 -1 5 -835 2239 -1853 4965 l-1850 4956 -873 0 -872 0 -11 -27z
m1757 -3770 c486 -1420 884 -2585 884 -2588 0 -3 -814 -5 -1810 -5 -995 0
-1810 3 -1810 8 0 19 1845 5190 1849 5180 2 -7 401 -1175 887 -2595z"/>
<path d="M64010 27205 l0 -4965 690 0 690 0 2 3874 3 3873 1355 -3873 1355
-3874 766 0 767 0 56 173 c30 94 592 1835 1248 3869 l1193 3696 3 -3869 2
-3869 715 0 715 0 0 4965 0 4965 -1023 0 -1024 0 -1303 -4122 c-717 -2268
-1306 -4128 -1309 -4134 -3 -6 -645 1848 -1427 4120 l-1421 4131 -1026 3
-1027 2 0 -4965z"/>
<path d="M113120 31535 l0 -635 1450 0 1450 0 0 -4330 0 -4330 735 0 735 0 0
4330 0 4330 1470 0 1470 0 0 635 0 635 -3655 0 -3655 0 0 -635z"/>
<path d="M123160 27205 l0 -4965 3005 0 3005 0 0 600 0 600 -2275 0 -2275 0 0
1635 0 1635 2020 0 2020 0 0 580 0 580 -2020 0 -2020 0 0 1550 0 1550 2275 0
2275 0 0 600 0 600 -3005 0 -3005 0 0 -4965z"/>
<path d="M132530 27205 l0 -4965 720 0 720 0 0 1825 0 1825 937 -2 938 -3
1283 -1810 c706 -995 1286 -1816 1290 -1823 6 -10 186 -12 866 -10 l858 3
-1421 1942 c-782 1068 -1421 1945 -1421 1950 0 4 46 26 103 47 159 61 438 206
587 305 409 270 741 624 925 983 169 328 267 715 305 1192 13 166 13 547 -1
701 -50 587 -222 1058 -542 1488 -601 807 -1579 1225 -3057 1307 -110 6 -775
10 -1637 10 l-1453 0 0 -4965z m3235 3831 c640 -80 1069 -240 1404 -522 300
-252 481 -604 558 -1086 23 -143 26 -629 4 -778 -65 -467 -210 -790 -467
-1045 -302 -299 -803 -495 -1459 -570 -252 -28 -467 -35 -1147 -35 l-688 0 0
2031 0 2030 833 -4 c691 -4 854 -7 962 -21z"/>
<path d="M100750 16250 l0 -1202 323 5 c281 4 334 7 419 26 324 71 503 208
633 484 82 173 114 334 122 613 8 280 -16 484 -79 664 -85 241 -217 399 -413
495 -175 85 -295 104 -692 112 l-313 6 0 -1203z m560 980 c387 -47 584 -267
640 -716 15 -114 14 -424 -1 -545 -42 -348 -178 -559 -417 -646 -90 -33 -233
-53 -379 -53 l-123 0 0 985 0 985 98 0 c54 0 136 -5 182 -10z"/>
<path d="M113860 16250 l0 -1202 323 5 c281 4 334 7 419 26 324 71 503 208
633 484 82 173 114 334 122 613 8 280 -16 484 -79 664 -85 241 -217 399 -413
495 -175 85 -295 104 -692 112 l-313 6 0 -1203z m560 980 c387 -47 584 -267
640 -716 15 -114 14 -424 -1 -545 -42 -348 -178 -559 -417 -646 -90 -33 -233
-53 -379 -53 l-123 0 0 985 0 985 98 0 c54 0 136 -5 182 -10z"/>
<path d="M128850 16250 l0 -1202 323 5 c281 4 334 7 419 26 324 71 503 208
633 484 82 173 114 334 122 613 8 280 -16 484 -79 664 -85 241 -217 399 -413
495 -175 85 -295 104 -692 112 l-313 6 0 -1203z m560 980 c387 -47 584 -267
640 -716 15 -114 14 -424 -1 -545 -42 -348 -178 -559 -417 -646 -90 -33 -233
-53 -379 -53 l-123 0 0 985 0 985 98 0 c54 0 136 -5 182 -10z"/>
<path d="M108110 16936 c-109 -29 -167 -55 -244 -110 -202 -144 -316 -374
-346 -697 -25 -266 14 -527 108 -714 120 -240 287 -368 536 -406 212 -33 441
48 547 195 l29 39 0 -35 c0 -19 3 -63 6 -97 l7 -61 93 0 94 0 0 515 0 515
-315 0 -315 0 0 -105 0 -105 195 0 195 0 0 -212 0 -212 -77 -76 c-43 -42 -98
-88 -123 -103 -92 -53 -223 -71 -326 -43 -264 70 -398 360 -381 821 10 287 74
464 214 595 69 65 136 95 246 113 79 12 193 -2 263 -32 42 -19 138 -106 179
-164 l20 -27 97 59 98 59 -45 61 c-81 110 -210 193 -361 231 -111 29 -280 27
-394 -4z"/>
<path d="M123610 16954 c-229 -44 -397 -151 -515 -328 -135 -203 -192 -469
-166 -769 25 -291 114 -495 283 -652 134 -124 299 -191 498 -202 363 -19 665
167 797 489 68 168 87 297 80 549 -6 221 -29 326 -106 484 -104 211 -254 339
-477 406 -54 17 -103 22 -219 24 -82 2 -161 1 -175 -1z m250 -215 c202 -32
355 -189 422 -434 20 -71 22 -105 22 -315 1 -192 -2 -248 -17 -305 -73 -293
-235 -446 -489 -462 -280 -18 -484 139 -558 430 -59 234 -46 559 30 754 32 84
104 188 157 231 118 92 269 128 433 101z"/>
<path d="M136850 16954 c-229 -44 -397 -151 -515 -328 -135 -203 -192 -469
-166 -769 25 -291 114 -495 283 -652 134 -124 299 -191 498 -202 363 -19 665
167 797 489 68 168 87 297 80 549 -6 221 -29 326 -106 484 -104 211 -254 339
-477 406 -54 17 -103 22 -219 24 -82 2 -161 1 -175 -1z m250 -215 c202 -32
355 -189 422 -434 20 -71 22 -105 22 -315 1 -192 -2 -248 -17 -305 -73 -293
-235 -446 -489 -462 -280 -18 -484 139 -558 430 -59 234 -46 559 30 754 32 84
104 188 157 231 118 92 269 128 433 101z"/>
<path d="M105135 16930 c-321 -51 -522 -258 -502 -517 3 -43 13 -98 22 -123
55 -157 210 -268 530 -380 417 -146 476 -193 478 -379 1 -128 -47 -207 -163
-264 -131 -66 -315 -71 -463 -12 -101 41 -198 129 -256 233 -6 11 -30 3 -119
-39 -62 -28 -112 -55 -112 -59 0 -21 89 -137 146 -189 153 -140 375 -211 618
-198 304 17 529 160 598 380 22 70 26 212 8 292 -17 77 -68 162 -129 216 -71
63 -199 126 -461 224 -248 93 -329 134 -379 191 -92 105 -80 259 27 341 80 61
141 77 292 77 131 1 137 0 200 -30 83 -39 119 -70 168 -143 l39 -58 117 46
117 47 -51 71 c-85 123 -229 220 -380 257 -80 20 -264 28 -345 16z"/>
<path d="M102920 15980 l0 -930 565 0 565 0 0 110 0 110 -430 0 -430 0 0 310
0 310 380 0 380 0 0 110 0 110 -380 0 -380 0 0 290 0 290 430 0 430 0 0 110 0
110 -565 0 -565 0 0 -930z"/>
<path d="M106570 15980 l0 -930 135 0 135 0 0 930 0 930 -135 0 -135 0 0 -930z"/>
<path d="M109630 15980 l0 -930 130 0 130 0 2 769 3 770 340 -770 340 -769
193 0 192 0 0 930 0 930 -125 0 -125 0 -2 -761 -3 -761 -340 761 -340 761
-197 0 -198 0 0 -930z"/>
<path d="M116030 15980 l0 -930 565 0 565 0 0 110 0 110 -430 0 -430 0 0 310
0 310 380 0 380 0 0 110 0 110 -380 0 -380 0 0 290 0 290 430 0 430 0 0 110 0
110 -565 0 -565 0 0 -930z"/>
<path d="M117536 16899 c4 -6 143 -424 309 -928 l303 -916 188 0 188 0 307
928 306 927 -136 0 -137 0 -260 -824 c-142 -453 -262 -819 -265 -812 -4 6
-118 377 -255 823 l-249 813 -153 0 c-110 0 -151 -3 -146 -11z"/>
<path d="M119600 15980 l0 -930 565 0 565 0 0 110 0 110 -430 0 -430 0 0 310
0 310 380 0 380 0 0 110 0 110 -380 0 -380 0 0 290 0 290 430 0 430 0 0 110 0
110 -565 0 -565 0 0 -930z"/>
<path d="M121370 15980 l0 -930 585 0 585 0 0 120 0 120 -450 0 -450 0 0 810
0 810 -135 0 -135 0 0 -930z"/>
<path d="M125260 15981 l0 -931 135 0 135 0 0 319 0 319 213 5 c186 4 224 8
309 30 246 65 409 210 463 413 19 70 21 231 5 312 -32 159 -140 297 -291 371
-162 80 -195 84 -606 89 l-363 3 0 -930z m664 714 c139 -25 232 -84 283 -182
92 -173 63 -389 -67 -506 -93 -84 -188 -107 -436 -107 l-174 0 0 405 0 405
158 0 c89 -1 191 -7 236 -15z"/>
<path d="M131020 15980 l0 -930 565 0 565 0 0 110 0 110 -430 0 -430 0 0 310
0 310 380 0 380 0 0 110 0 110 -380 0 -380 0 0 290 0 290 430 0 430 0 0 110 0
110 -565 0 -565 0 0 -930z"/>
<path d="M132790 15981 l0 -931 135 0 135 0 0 319 0 319 213 5 c186 4 224 8
309 30 246 65 409 210 463 413 19 70 21 231 5 312 -32 159 -140 297 -291 371
-162 80 -195 84 -606 89 l-363 3 0 -930z m664 714 c139 -25 232 -84 283 -182
92 -173 63 -389 -67 -506 -93 -84 -188 -107 -436 -107 l-174 0 0 405 0 405
158 0 c89 -1 191 -7 236 -15z"/>
<path d="M134610 15980 l0 -930 585 0 585 0 0 120 0 120 -450 0 -450 0 0 810
0 810 -135 0 -135 0 0 -930z"/>
<path d="M138152 16893 c8 -10 155 -266 326 -569 l312 -550 0 -362 0 -362 135
0 135 0 0 361 0 360 291 522 c160 287 304 543 320 570 l29 47 -139 0 -139 0
-243 -445 c-134 -244 -246 -442 -249 -439 -3 3 -111 202 -240 442 l-235 437
-159 3 c-152 2 -159 2 -144 -15z"/>
<path d="M111620 15215 l0 -165 165 0 165 0 0 165 0 165 -165 0 -165 0 0 -165z"/>
<path d="M126740 15215 l0 -165 165 0 165 0 0 165 0 165 -165 0 -165 0 0 -165z"/>
<path d="M139850 15215 l0 -165 165 0 165 0 0 165 0 165 -165 0 -165 0 0 -165z"/>
</g>
</svg>
